<svg width="169" height="169" viewBox="0 0 169 169" fill="none" xmlns="http://www.w3.org/2000/svg">
<g clip-path="url(#clip0_45_179)">
<path d="M69.4136 87.4294L59.875 90.4791C59.1119 90.7231 58.4406 90.377 58.1966 89.6139C57.9526 88.8508 58.2987 88.1795 59.0618 87.9355L68.6003 84.8858C69.3634 84.6418 70.0348 84.9879 70.2787 85.7509C70.5227 86.514 70.1766 87.1854 69.4136 87.4294ZM76.4085 85.1929L74.628 85.7622C73.8649 86.0062 73.1935 85.6601 72.9495 84.897C72.7055 84.1339 73.0516 83.4626 73.8147 83.2186L75.5952 82.6493C76.3583 82.4053 77.0297 82.7514 77.2737 83.5145C77.5176 84.2776 77.1716 84.9489 76.4085 85.1929ZM84.8542 119.5C84.0911 119.744 83.4197 119.398 83.1758 118.635C82.0779 115.201 78.426 113.425 75.1193 114.482C73.9747 114.848 72.952 115.596 72.0972 116.43C71.797 116.806 71.4155 116.928 70.9933 116.923C70.5711 116.918 70.1947 116.618 69.9456 116.277C67.7896 113.041 63.8375 111.641 60.1492 112.82C55.5707 114.284 53.1889 119.111 54.6121 123.562C54.8561 124.325 54.51 124.997 53.7469 125.241C52.9839 125.485 52.3125 125.139 52.0685 124.376C50.1574 118.398 53.4857 112.147 59.336 110.277C63.6601 108.894 68.2888 110.218 71.162 113.505C72.0575 112.798 73.1208 112.178 74.1382 111.852C78.9711 110.307 84.047 113.03 85.5515 117.736C85.9227 118.458 85.6173 119.256 84.8542 119.5ZM110.648 106.347C109.885 106.591 109.213 106.245 108.969 105.482C107.505 100.904 110.101 95.8684 114.679 94.4045C115.697 94.0792 116.923 93.9676 117.935 94.0645C118.409 89.8476 121.284 86.1248 125.481 84.7829C131.204 82.9531 137.414 86.1543 139.244 91.8774C139.488 92.6405 139.142 93.3118 138.379 93.5558C137.616 93.7998 136.945 93.4537 136.701 92.6906C135.318 88.3665 130.618 85.944 126.294 87.3266C122.733 88.4651 120.453 91.8575 120.493 95.4894C120.488 95.9116 120.356 96.3745 120.015 96.6237C119.674 96.8728 119.292 96.9948 118.83 96.8625C117.736 96.5112 116.51 96.6228 115.365 96.9888C112.186 98.0053 110.369 101.53 111.386 104.71C111.757 105.432 111.284 106.144 110.648 106.347Z" fill="#4F028B" fill-opacity="0.25"/>
<path d="M137.791 65.8479L137.119 65.5018C132.379 62.9522 123.808 62.889 118.68 64.3883L55.7256 84.5164C48.4262 84.0466 41.4071 81.3844 35.7212 76.754C35.3448 76.4538 34.9226 76.4486 34.5411 76.5706L25.6384 79.417C25.2569 79.539 24.8295 79.956 24.8243 80.3782C24.6919 80.8411 24.8546 81.3498 25.1038 81.6907L34.4 91.4749C33.9319 91.7647 33.7131 92.3954 33.8757 92.9042L34.5263 94.939L33.0001 95.427C31.2196 95.9963 30.1408 97.8832 30.7507 99.7909C31.3606 101.699 33.2069 102.65 35.1146 102.04L37.7854 101.186C50.904 102.319 63.7587 100.872 76.3496 96.8469L96.0625 90.5441C97.3188 91.4041 99.1296 91.8064 100.783 91.2778L113.119 87.3335C113.882 87.0895 114.229 86.4182 113.985 85.6551L113.741 84.892L134.598 78.2233C137.142 77.41 139.192 75.4928 140.363 73.0158C141.493 70.4117 140.349 67.2728 137.791 65.8479ZM34.6319 79.4853C39.2346 82.9201 44.3564 85.3478 49.916 86.514L37.0708 90.621L28.4001 81.4778L34.6319 79.4853ZM33.1671 99.0183C33.0451 98.6368 33.1775 98.1739 33.6862 98.0113L46.5314 93.9043C46.913 93.7823 47.3758 93.9147 47.5385 94.4234C47.6605 94.805 47.5281 95.2678 47.0194 95.4305L37.0993 98.6022L34.3014 99.4968C33.752 99.5322 33.2891 99.3999 33.1671 99.0183ZM110.739 85.1507L99.6746 88.6883C98.2756 89.1356 96.6379 88.3976 96.1499 86.8715C95.7026 85.4725 96.4406 83.8347 97.9668 83.3468L109.031 79.8091L110.739 85.1507ZM137.886 71.8453C137.061 73.6509 135.652 74.9426 133.744 75.5525L112.632 82.3025L111.168 77.724C110.924 76.961 110.253 76.6149 109.49 76.8589L97.1535 80.8032C94.2284 81.7384 92.6711 84.7596 93.6063 87.6847C93.6876 87.9391 93.7283 88.0663 93.9368 88.28L75.2413 94.2574C65.3212 97.4291 55.1269 98.8661 44.8668 98.7822L47.792 97.8469C49.5725 97.2776 50.6514 95.3907 50.0414 93.483C49.4315 91.5753 47.5852 90.6236 45.6775 91.2335L37.0293 93.9986L36.7853 93.2355L119.707 66.7234C123.522 65.5035 129.942 65.4136 134.189 66.8593L128.72 68.6078C127.957 68.8517 127.611 69.5231 127.855 70.2862C128.099 71.0493 128.77 71.3954 129.533 71.1514L137.419 68.6303C138.166 69.6529 138.405 70.8382 137.886 71.8453Z" fill="#4F028B" fill-opacity="0.25"/>
<path d="M57.5486 77.0647L64.5435 74.8282C64.925 74.7062 65.0981 74.3705 64.9761 73.989C64.8541 73.6075 64.5184 73.4344 64.1369 73.5564L57.142 75.7929C56.7604 75.9148 56.5874 76.2505 56.7094 76.6321C56.8314 77.0136 57.167 77.1867 57.5486 77.0647ZM69.4179 69.9054L89.1309 63.6027C89.5124 63.4807 89.6854 63.145 89.5634 62.7635C89.4415 62.3819 89.1058 62.2089 88.7242 62.3309L69.0113 68.6336C68.6297 68.7556 68.4567 69.0913 68.5787 69.4728C68.7007 69.8544 69.0364 70.0274 69.4179 69.9054Z" fill="#4F028B" fill-opacity="0.25"/>
</g>
<defs>
<clipPath id="clip0_45_179">
<rect width="133.523" height="133.523" fill="white" transform="translate(0.895508 41.4886) rotate(-17.7304)"/>
</clipPath>
</defs>
</svg>
