<svg width="112" height="112" viewBox="0 0 112 112" fill="none" xmlns="http://www.w3.org/2000/svg">
<path d="M82.88 77.98V76.2825C82.88 72.7825 80.0275 69.93 76.5275 69.93H69.335L67.1475 57.26C66.7625 55.0725 68.32 52.3075 69.9475 50.8025C74.305 46.8125 76.8075 41.125 76.825 35.21C76.825 23.5025 67.305 14 55.615 14C43.925 14 34.405 23.52 34.405 35.2275C34.405 41.1425 36.925 46.8125 41.2825 50.82C42.9275 52.325 44.4675 55.1075 44.0825 57.2775L41.895 69.9475H34.7025C31.2025 69.9475 28.35 72.8 28.35 76.3V77.9975C20.37 78.54 14 85.1375 14 93.2575V99.0325C14 101.92 15.96 104.248 18.6025 105.018V105.648C18.6025 109.148 21.455 112 24.955 112H86.275C89.775 112 92.6275 109.148 92.6275 105.648V105.018C95.2525 104.248 97.23 101.902 97.23 99.0325V93.2575C97.23 85.1375 90.8775 78.54 82.88 77.9975V77.98ZM43.645 48.2125C40.005 44.87 37.905 40.1275 37.905 35.1925C37.905 25.4275 45.85 17.4825 55.615 17.4825C65.38 17.4825 73.325 25.4275 73.325 35.1925C73.325 40.1275 71.225 44.87 67.585 48.2125C65.205 50.4 63.07 54.2325 63.7 57.855L65.7825 69.93H45.43L47.5125 57.855C48.1425 54.2325 46.0075 50.4 43.6275 48.2125H43.645ZM34.7025 73.43H76.545C78.12 73.43 79.3975 74.7075 79.3975 76.2825V77.875H31.85V76.2825C31.85 74.7075 33.1275 73.43 34.7025 73.43ZM86.2925 108.482H24.955C23.38 108.482 22.1025 107.205 22.1025 105.63V105.35H89.1275V105.63C89.1275 107.205 87.85 108.482 86.275 108.482H86.2925ZM93.73 99.015C93.73 100.59 92.4525 101.868 90.8775 101.868H20.3525C18.7775 101.868 17.5 100.59 17.5 99.015V93.24C17.5 86.695 22.82 81.375 29.365 81.375H81.8475C88.3925 81.375 93.7125 86.695 93.7125 93.24V99.015H93.73Z" fill="#4F028B" fill-opacity="0.25"/>
<path d="M53.48 18.0775C54.425 17.8675 55.0025 16.9225 54.7925 15.9775C54.5825 15.0325 53.6375 14.4375 52.6925 14.665C52.5175 14.7 48.58 15.6275 45.64 19.1275C45.0275 19.8625 45.115 20.965 45.85 21.595C46.1825 21.875 46.585 21.9975 46.97 21.9975C47.4775 21.9975 47.9675 21.7875 48.3175 21.3675C50.47 18.8125 53.3925 18.0775 53.4625 18.06L53.48 18.0775ZM44.2925 26.3025C43.295 26.2675 42.525 27.0375 42.5075 28.0175C42.5075 28.77 42.5075 29.575 42.595 30.3975C42.6825 31.3075 43.4525 31.9725 44.3275 31.9725C44.38 31.9725 44.4325 31.9725 44.5025 31.9725C45.465 31.885 46.165 31.0275 46.0775 30.065C46.0075 29.3825 45.99 28.7175 46.0075 28.105C46.025 27.1425 45.2725 26.3375 44.2925 26.32V26.3025Z" fill="#4F028B" fill-opacity="0.25"/>
<path d="M51.954 43.6835C51.4899 43.6835 51.0448 43.8679 50.7166 44.1961C50.3884 44.5243 50.204 44.9694 50.204 45.4335V52.4335C50.204 52.8976 50.3884 53.3427 50.7166 53.6709C51.0448 53.9991 51.4899 54.1835 51.954 54.1835C52.4181 54.1835 52.8633 53.9991 53.1914 53.6709C53.5196 53.3427 53.704 52.8976 53.704 52.4335V47.1835H64.204V52.4335C64.204 52.8976 64.3884 53.3427 64.7166 53.6709C65.0448 53.9991 65.4898 54.1835 65.954 54.1835C66.4181 54.1835 66.8633 53.9991 67.1914 53.6709C67.5196 53.3427 67.704 52.8976 67.704 52.4335V45.4335C67.704 44.9694 67.5196 44.5243 67.1914 44.1961C66.8633 43.8679 66.4181 43.6835 65.954 43.6835H51.954ZM51.5025 0.00699949L51.2575 0.0279996L50.225 0.1785L50.729 3.6435L51.674 3.507L55.6395 3.5L57.204 3.7275L57.694 0.262499L56.035 0.0210001L55.79 0L51.5025 0.00699949ZM42.8365 1.869L42.602 1.9565L39.739 3.255L41.188 6.44L43.9215 5.1975L47.516 4.137L46.536 0.7805L42.8365 1.869ZM60.396 4.2875L63.441 5.1835L66.696 6.6605L68.1485 3.4755L64.799 1.9495L64.568 1.869L61.383 0.930999L60.396 4.2875ZM35.091 6.0235L34.8915 6.167L31.7135 8.8795L31.542 9.0545L30.7755 9.912L33.4005 12.229L34.0725 11.473L37.086 8.9005L38.381 8.0815L36.505 5.1275L35.091 6.0235ZM69.468 8.3615L70.336 8.9075L73.311 11.452L74.354 12.628L76.979 10.311L75.866 9.044L75.691 8.876L72.5235 6.174L72.331 6.034L71.3475 5.4075L69.468 8.3615ZM26.25 15.9985L29.176 17.913L31.29 14.693L28.364 12.7785L26.25 15.9985ZM76.412 15.1375L78.1165 17.7135L79.667 21.028L82.838 19.537L81.228 16.114L81.102 15.8935L79.331 13.209L76.412 15.1375ZM80.6645 24.1185L81.0075 25.2315L81.6095 29.1445L81.6235 30.5165L85.1235 30.4815L85.1095 28.9765L85.0885 28.7315L84.4445 24.563L84.392 24.318L84.014 23.093L80.6645 24.1185ZM81.151 36.9495L80.213 40.369L83.5835 41.2965L84.553 37.7615L84.609 37.5235L85.0325 34.216L81.5605 33.7715L81.151 36.9495ZM78.547 44.345L76.489 47.705L75.523 48.86L78.218 51.1L79.2505 49.8575L79.3905 49.6475L81.6025 46.0635L81.7075 45.836L82.1765 44.7615L78.9705 43.3755L78.547 44.345Z" fill="#4F028B" fill-opacity="0.25"/>
</svg>
