<svg width="129" height="129" viewBox="0 0 129 129" fill="none" xmlns="http://www.w3.org/2000/svg">
<path d="M7.58139 105.737H16.0285C16.938 111.645 22.042 116.189 28.2008 116.189C34.3531 116.189 39.4529 111.655 40.3702 105.737H92.7279C93.6374 111.645 98.7413 116.189 104.9 116.189C111.053 116.189 116.152 111.655 117.07 105.737H121.405C124.543 105.737 127.096 103.184 127.096 100.046L127.094 73.8463C127.45 64.8483 121.624 58.6884 116.681 55.1092C113.246 52.5989 109.08 51.2725 104.633 51.2725H53.3757C51.0526 51.2725 48.8054 52.3747 47.3548 54.2348L31.843 74.4688C31.4817 74.9348 30.9148 75.2126 30.3257 75.2126H11.3755C5.89132 75.2126 1.89763 79.9837 1.89763 84.1829C1.89691 85.737 1.88978 100.991 1.89022 100.046C1.89022 103.184 4.44311 105.737 7.58139 105.737ZM28.2008 112.395C23.4933 112.395 19.664 108.566 19.664 103.846C19.6807 99.1361 23.51 95.3031 28.2008 95.3031C32.8695 95.3031 36.7227 99.1114 36.7376 103.858C36.7376 108.566 32.9082 112.395 28.2008 112.395ZM104.9 112.395C100.193 112.395 96.3634 108.566 96.3634 103.846C96.3782 99.1352 100.208 95.3031 104.9 95.3031C109.569 95.3031 113.422 99.1114 113.437 103.858C113.437 108.566 109.608 112.395 104.9 112.395ZM11.3755 79.0068H30.3257C32.0783 79.0068 33.766 78.1786 34.8479 76.7846L50.356 56.5561C51.0841 55.6233 52.2123 55.0666 53.3757 55.0666H104.633C108.27 55.0666 111.662 56.1411 114.45 58.178C118.648 61.2181 123.593 66.3776 123.302 73.7713V100.046C123.302 101.092 122.452 101.943 121.405 101.943H117.081C116.15 96.0427 110.972 91.509 104.9 91.509C98.8669 91.509 93.6601 96.0074 92.7193 101.943H40.3816C39.4381 95.9635 34.1929 91.509 28.2008 91.509C22.1336 91.509 16.9548 96.0449 16.0218 101.943H7.58139C6.53467 101.943 5.68433 101.092 5.68433 100.046V95.9108H11.7497C13.8413 95.9108 15.5439 94.2092 15.5439 92.1166V86.0809C15.5439 83.9884 13.8413 82.2858 11.7497 82.2858H6.24034C7.1516 80.3549 9.10249 79.0068 11.3755 79.0068ZM5.69175 86.08L11.7497 86.0809L11.7516 92.1166H5.69175V86.08Z" fill="#4F028B" fill-opacity="0.25"/>
<path d="M102.068 82.1765H115.708C117.8 82.1765 119.502 80.4749 119.502 78.3824L119.5 73.5443C119.68 69.0036 117.22 64.8612 112.19 61.2329C110.076 59.7036 107.39 58.8616 104.628 58.8616H102.068C99.9759 58.8616 98.2734 60.5632 98.2734 62.6557V78.3824C98.2734 80.4749 99.976 82.1765 102.068 82.1765ZM102.068 62.6557H104.628C106.599 62.6557 108.494 63.242 109.969 64.3082C113.904 67.1473 115.836 70.2041 115.708 73.4693L115.71 78.3824H102.068V62.6557ZM73.4875 82.1765H90.5611C92.6526 82.1765 94.3552 80.4749 94.3552 78.3824V62.6557C94.3552 60.5632 92.6526 58.8616 90.5611 58.8616H73.4875C71.3941 58.8616 69.6916 60.5632 69.6916 62.6557V78.3824C69.6916 80.4749 71.3941 82.1765 73.4875 82.1765ZM73.4875 62.6557H90.5611L90.5629 78.3824H73.4857L73.4875 62.6557ZM43.1735 82.1765H61.9811C64.0726 82.1765 65.7752 80.4749 65.7752 78.3824V62.6557C65.7752 60.5632 64.0726 58.8616 61.9811 58.8616H55.2339C54.063 58.8616 52.9367 59.4164 52.2216 60.3464L40.1649 76.0731C39.2775 77.2273 39.1274 78.7557 39.7703 80.0608C40.415 81.366 41.7174 82.1765 43.1735 82.1765ZM55.2339 62.6557H61.9811L61.9829 78.3824H43.1754L55.2339 62.6557ZM28.2008 98.5062C25.2644 98.5062 22.8709 100.899 22.8616 103.853C22.8616 106.798 25.257 109.193 28.2008 109.193C31.1464 109.193 33.5418 106.797 33.5418 103.841C33.5326 100.899 31.1372 98.5062 28.2008 98.5062ZM28.2008 105.399C27.3486 105.399 26.6558 104.705 26.6558 103.852C26.6576 102.996 27.3505 102.3 28.2008 102.3C29.0511 102.3 29.7459 102.996 29.7477 103.853C29.7477 104.705 29.053 105.399 28.2008 105.399ZM104.9 98.5062C101.966 98.5062 99.5703 100.899 99.5591 103.853C99.5591 106.798 101.955 109.193 104.9 109.193C107.844 109.193 110.239 106.797 110.239 103.841C110.23 100.899 107.835 98.5062 104.9 98.5062ZM104.9 105.399C104.048 105.399 103.353 104.705 103.353 103.854C103.357 102.997 104.05 102.3 104.9 102.3C105.751 102.3 106.443 102.996 106.445 103.853C106.445 104.705 105.752 105.399 104.9 105.399Z" fill="#4F028B" fill-opacity="0.25"/>
<path d="M10.4869 122.233H3.79602V126.027H10.4869V122.233Z" fill="#4F028B" fill-opacity="0.25"/>
<path d="M26.8775 122.233H20.1847V126.027H26.8775V122.233Z" fill="#4F028B" fill-opacity="0.25"/>
<path d="M43.2662 122.233H36.5734V126.027H43.2662V122.233Z" fill="#4F028B" fill-opacity="0.25"/>
<path d="M59.653 122.233H52.9602V126.027H59.653V122.233Z" fill="#4F028B" fill-opacity="0.25"/>
<path d="M76.0417 122.233H69.3489V126.027H76.0417V122.233Z" fill="#4F028B" fill-opacity="0.25"/>
<path d="M92.4304 122.233H85.7376V126.027H92.4304V122.233Z" fill="#4F028B" fill-opacity="0.25"/>
<path d="M108.817 122.233H102.126V126.027H108.817V122.233Z" fill="#4F028B" fill-opacity="0.25"/>
<path d="M125.208 122.233H118.515V126.027H125.208V122.233Z" fill="#4F028B" fill-opacity="0.25"/>
<path d="M71.1996 34.5195H75.7718C76.8204 34.5195 77.6689 33.6701 77.6689 32.6224C77.6689 29.7027 80.0587 27.3277 82.9969 27.3277C84.0455 27.3277 84.894 26.4783 84.894 25.4306C84.894 22.5119 87.2857 20.1368 90.2239 20.1368C91.3651 20.1368 92.4674 20.512 93.4141 21.2225C93.6753 21.4179 93.981 21.543 94.3033 21.5856C96.3189 21.8542 98.3549 22.7129 98.1697 27.0452C98.1456 27.6158 98.379 28.1679 98.8088 28.5467C99.2368 28.9256 99.8148 29.0914 100.376 28.9969C100.624 28.9561 100.873 28.9154 101.132 28.9154C103.631 28.9154 105.663 30.9347 105.663 33.4163C105.663 34.4639 106.512 35.3133 107.56 35.3133H113.689C114.737 35.3133 115.586 34.4639 115.586 33.4163C115.586 32.3686 114.737 31.5192 113.689 31.5192H109.237C108.431 28.0993 105.495 25.4881 101.906 25.1565C101.49 21.1243 99.1923 18.5871 95.2852 17.8989C93.7698 16.8791 92.0283 16.3427 90.2239 16.3427C85.7869 16.3427 82.0799 19.5125 81.2666 23.6975C77.68 24.3867 74.8344 27.1758 74.0748 30.7254H71.1996C70.151 30.7254 69.3025 31.5748 69.3025 32.6224C69.3025 33.6701 70.151 34.5195 71.1996 34.5195ZM53.3535 34.3648C52.5476 30.9449 49.6113 28.3337 46.0228 28.002C45.6059 23.9708 43.3087 21.4327 39.4016 20.7445C37.8862 19.7246 36.1447 19.1883 34.3403 19.1883C29.9033 19.1883 26.1963 22.3581 25.383 26.5431C21.7945 27.2323 18.9489 30.0214 18.1894 33.571H15.316C14.2674 33.571 13.4189 34.4204 13.4189 35.468C13.4189 36.5157 14.2674 37.3651 15.316 37.3651H19.8864C20.9349 37.3651 21.7834 36.5157 21.7834 35.468C21.7834 32.5483 24.1751 30.1733 27.1133 30.1733C28.1619 30.1733 29.0104 29.3239 29.0104 28.2762C29.0104 25.3575 31.4021 22.9824 34.3403 22.9824C35.4815 22.9824 36.5838 23.3576 37.5305 24.0681C37.7917 24.2635 38.0974 24.3886 38.4197 24.4312C40.4354 24.6998 42.4714 25.5585 42.2861 29.8908C42.262 30.4623 42.4973 31.0144 42.9252 31.3932C43.355 31.7712 43.9331 31.9379 44.4944 31.8425C44.7408 31.8008 44.9909 31.761 45.2484 31.761C47.7476 31.761 49.7799 33.7803 49.7799 36.2619C49.7799 37.3095 50.6283 38.1589 51.6769 38.1589H57.8034C58.852 38.1589 59.7005 37.3095 59.7005 36.2619C59.7005 35.2142 58.852 34.3648 57.8034 34.3648L53.3535 34.3648ZM61.8662 14.3549C61.8662 10.1708 65.2694 6.76665 69.4544 6.76665C70.503 6.76665 71.3515 5.91724 71.3515 4.86959C71.3515 3.82194 70.503 2.97253 69.4544 2.97253C65.4975 2.97253 62.0094 5.00402 59.9691 8.07644C57.9289 5.00402 54.4408 2.97253 50.4839 2.97253C49.4353 2.97253 48.5868 3.82194 48.5868 4.86959C48.5868 5.91724 49.4353 6.76665 50.4839 6.76665C54.6689 6.76665 58.0721 10.1708 58.0721 14.3549C58.0721 15.4025 58.9206 16.2519 59.9691 16.2519C61.0177 16.2519 61.8662 15.4025 61.8662 14.3549ZM63.5354 85.4714H57.5608C56.7753 85.4714 56.138 86.1087 56.138 86.8942C56.138 87.6797 56.7753 88.317 57.5608 88.317H63.5354C64.3209 88.317 64.9582 87.6797 64.9582 86.8942C64.9582 86.1087 64.3209 85.4714 63.5354 85.4714ZM50.5376 85.4714H44.5648C43.7793 85.4714 43.142 86.1087 43.142 86.8942C43.142 87.6797 43.7793 88.317 44.5648 88.317H50.5376C51.3231 88.317 51.9604 87.6797 51.9604 86.8942C51.9604 86.1087 51.3231 85.4714 50.5376 85.4714Z" fill="#4F028B" fill-opacity="0.25"/>
</svg>
