<svg width="561" height="557" viewBox="0 0 561 557" fill="none" xmlns="http://www.w3.org/2000/svg">
<g clip-path="url(#clip0_79_120)">
<mask id="mask0_79_120" style="mask-type:luminance" maskUnits="userSpaceOnUse" x="75" y="79" width="410" height="410">
<path d="M75 79H485V489H75V79Z" fill="white"/>
</mask>
<g mask="url(#mask0_79_120)">
<path d="M474.211 284C474.211 391.258 387.258 478.211 280 478.211C172.742 478.211 85.7895 391.258 85.7895 284C85.7895 176.742 172.742 89.7895 280 89.7895C387.258 89.7895 474.211 176.742 474.211 284Z" fill="#E5D9EE"/>
</g>
<mask id="mask1_79_120" style="mask-type:luminance" maskUnits="userSpaceOnUse" x="85" y="89" width="390" height="390">
<path d="M85.7895 284C85.7895 391.258 172.742 478.211 280 478.211C387.258 478.211 474.211 391.258 474.211 284C474.211 176.742 387.258 89.7895 280 89.7895C172.742 89.7895 85.7895 176.742 85.7895 284Z" fill="white"/>
</mask>
<g mask="url(#mask1_79_120)">
<path d="M387.226 106.643C362.356 96.4681 350.811 127.542 330.581 121.478C310.351 115.404 283.377 101.928 265.844 118.781C248.311 135.645 244.265 151.149 265.844 150.469C287.423 149.801 302.259 124.176 313.048 134.965C323.838 145.754 321.14 154.516 295.515 157.893C269.89 161.259 242.237 165.305 227.401 165.305C212.577 165.305 209.199 174.077 219.309 183.518C229.43 192.958 213.246 193.638 196.392 203.079C179.528 212.52 200.438 216.566 214.594 224.658C228.75 232.75 239.539 222.629 245.614 209.143C251.678 195.656 277.767 179.472 288.664 181.489C299.561 183.518 299.561 188.912 297.533 198.353C295.515 207.794 305.636 205.097 306.305 194.307C306.984 183.518 319.123 175.426 328.563 174.746C338.004 174.077 346.086 187.564 335.307 194.307C324.517 201.051 313.728 206.445 327.215 209.822C340.702 213.189 350.132 230.722 334.627 238.145C319.123 245.557 292.138 250.283 280 244.208C267.862 238.145 240.219 229.373 232.796 234.099C225.384 238.814 221.338 243.691 212.577 246.981C203.805 250.283 168.07 266.467 167.39 287.366C166.721 308.266 166.042 331.873 180.208 332.542C194.364 333.222 228.75 323.781 239.539 315.009C250.329 306.248 265.164 308.266 269.89 318.386C274.605 328.496 271.239 334.57 266.513 350.754C261.798 366.939 269.61 375.031 277.162 389.187C284.726 403.353 290.789 411.445 290.789 421.555C290.789 431.676 301.59 441.785 317.774 424.932C333.958 408.068 348.783 375.031 355.526 362.893C362.27 350.754 367.675 323.781 375.767 318.386C383.859 312.991 396.667 300.173 387.226 302.202C377.785 304.219 358.903 301.522 354.178 288.035C349.463 274.559 329.232 248.934 338.673 246.237C348.114 243.539 358.903 261.223 362.949 269.574C366.996 277.926 372.39 288.035 380.482 290.733C388.574 293.43 406.107 272.693 411.502 269.574C416.897 266.467 412.851 253.649 402.061 254.998C391.272 256.347 377.116 254.998 377.116 248.254C377.116 241.511 390.592 232.75 401.382 234.768C412.182 236.796 420.274 240.162 427.017 248.254C433.75 256.347 447.237 271.182 452.632 280.623C458.026 290.064 462.072 291.412 464.77 274.559C467.467 257.695 471.513 252.301 474.221 239.493C476.919 226.676 446.568 130.919 387.226 106.643Z" fill="url(#paint0_linear_79_120)"/>
</g>
</g>
<path d="M47.36 360.56V359.59C47.36 357.59 45.73 355.96 43.73 355.96H39.62L38.37 348.72C38.15 347.47 39.04 345.89 39.97 345.03C42.46 342.75 43.89 339.5 43.9 336.12C43.9 329.43 38.46 324 31.78 324C25.1 324 19.66 329.44 19.66 336.13C19.66 339.51 21.1 342.75 23.59 345.04C24.53 345.9 25.41 347.49 25.19 348.73L23.94 355.97H19.83C17.83 355.97 16.2 357.6 16.2 359.6V360.57C11.64 360.88 8 364.65 8 369.29V372.59C8 374.24 9.12 375.57 10.63 376.01V376.37C10.63 378.37 12.26 380 14.26 380H49.3C51.3 380 52.93 378.37 52.93 376.37V376.01C54.43 375.57 55.56 374.23 55.56 372.59V369.29C55.56 364.65 51.93 360.88 47.36 360.57V360.56ZM24.94 343.55C22.86 341.64 21.66 338.93 21.66 336.11C21.66 330.53 26.2 325.99 31.78 325.99C37.36 325.99 41.9 330.53 41.9 336.11C41.9 338.93 40.7 341.64 38.62 343.55C37.26 344.8 36.04 346.99 36.4 349.06L37.59 355.96H25.96L27.15 349.06C27.51 346.99 26.29 344.8 24.93 343.55H24.94ZM19.83 357.96H43.74C44.64 357.96 45.37 358.69 45.37 359.59V360.5H18.2V359.59C18.2 358.69 18.93 357.96 19.83 357.96ZM49.31 377.99H14.26C13.36 377.99 12.63 377.26 12.63 376.36V376.2H50.93V376.36C50.93 377.26 50.2 377.99 49.3 377.99H49.31ZM53.56 372.58C53.56 373.48 52.83 374.21 51.93 374.21H11.63C10.73 374.21 10 373.48 10 372.58V369.28C10 365.54 13.04 362.5 16.78 362.5H46.77C50.51 362.5 53.55 365.54 53.55 369.28V372.58H53.56Z" fill="black"/>
<path d="M30.56 326.33C31.1 326.21 31.43 325.67 31.31 325.13C31.19 324.59 30.65 324.25 30.11 324.38C30.01 324.4 27.76 324.93 26.08 326.93C25.73 327.35 25.78 327.98 26.2 328.34C26.39 328.5 26.62 328.57 26.84 328.57C27.13 328.57 27.41 328.45 27.61 328.21C28.84 326.75 30.51 326.33 30.55 326.32L30.56 326.33ZM25.31 331.03C24.74 331.01 24.3 331.45 24.29 332.01C24.29 332.44 24.29 332.9 24.34 333.37C24.39 333.89 24.83 334.27 25.33 334.27C25.36 334.27 25.39 334.27 25.43 334.27C25.98 334.22 26.38 333.73 26.33 333.18C26.29 332.79 26.28 332.41 26.29 332.06C26.3 331.51 25.87 331.05 25.31 331.04V331.03Z" fill="black"/>
<path d="M29.688 340.962C29.4228 340.962 29.1684 341.067 28.9809 341.255C28.7934 341.442 28.688 341.697 28.688 341.962V345.962C28.688 346.227 28.7934 346.482 28.9809 346.669C29.1684 346.857 29.4228 346.962 29.688 346.962C29.9532 346.962 30.2076 346.857 30.3951 346.669C30.5826 346.482 30.688 346.227 30.688 345.962V342.962H36.688V345.962C36.688 346.227 36.7934 346.482 36.9809 346.669C37.1684 346.857 37.4228 346.962 37.688 346.962C37.9532 346.962 38.2076 346.857 38.3951 346.669C38.5826 346.482 38.688 346.227 38.688 345.962V341.962C38.688 341.697 38.5826 341.442 38.3951 341.255C38.2076 341.067 37.9532 340.962 37.688 340.962H29.688ZM29.43 316.004L29.29 316.016L28.7 316.102L28.988 318.082L29.528 318.004L31.794 318L32.688 318.13L32.968 316.15L32.02 316.012L31.88 316L29.43 316.004ZM24.478 317.068L24.344 317.118L22.708 317.86L23.536 319.68L25.098 318.97L27.152 318.364L26.592 316.446L24.478 317.068ZM34.512 318.45L36.252 318.962L38.112 319.806L38.942 317.986L37.028 317.114L36.896 317.068L35.076 316.532L34.512 318.45ZM20.052 319.442L19.938 319.524L18.122 321.074L18.024 321.174L17.586 321.664L19.086 322.988L19.47 322.556L21.192 321.086L21.932 320.618L20.86 318.93L20.052 319.442ZM39.696 320.778L40.192 321.09L41.892 322.544L42.488 323.216L43.988 321.892L43.352 321.168L43.252 321.072L41.442 319.528L41.332 319.448L40.77 319.09L39.696 320.778ZM15 325.142L16.672 326.236L17.88 324.396L16.208 323.302L15 325.142ZM43.664 324.65L44.638 326.122L45.524 328.016L47.336 327.164L46.416 325.208L46.344 325.082L45.332 323.548L43.664 324.65ZM46.094 329.782L46.29 330.418L46.634 332.654L46.642 333.438L48.642 333.418L48.634 332.558L48.622 332.418L48.254 330.036L48.224 329.896L48.008 329.196L46.094 329.782ZM46.372 337.114L45.836 339.068L47.762 339.598L48.316 337.578L48.348 337.442L48.59 335.552L46.606 335.298L46.372 337.114ZM44.884 341.34L43.708 343.26L43.156 343.92L44.696 345.2L45.286 344.49L45.366 344.37L46.63 342.322L46.69 342.192L46.958 341.578L45.126 340.786L44.884 341.34Z" fill="#010101"/>
<circle cx="280.5" cy="284.5" r="248" stroke="#4F028B" stroke-opacity="0.61"/>
<g clip-path="url(#clip1_79_120)">
<path d="M147.316 64.8606L140.172 67.1446C139.6 67.3273 139.098 67.0682 138.915 66.4967C138.732 65.9252 138.991 65.4223 139.563 65.2396L146.707 62.9556C147.278 62.7729 147.781 63.032 147.964 63.6035C148.146 64.175 147.887 64.6779 147.316 64.8606ZM152.554 63.1856L151.221 63.612C150.649 63.7947 150.147 63.5355 149.964 62.964C149.781 62.3925 150.04 61.8897 150.612 61.707L151.945 61.2806C152.517 61.0979 153.02 61.3571 153.202 61.9286C153.385 62.5001 153.126 63.0029 152.554 63.1856ZM158.88 88.8798C158.308 89.0625 157.805 88.8033 157.623 88.2318C156.8 85.6601 154.065 84.3298 151.589 85.1216C150.732 85.3957 149.966 85.9555 149.326 86.5802C149.101 86.862 148.815 86.9534 148.499 86.9495C148.183 86.9456 147.901 86.7208 147.714 86.4655C146.099 84.0421 143.14 82.9937 140.377 83.8769C136.948 84.9732 135.164 88.5882 136.23 91.9219C136.413 92.4934 136.154 92.9962 135.582 93.1789C135.011 93.3617 134.508 93.1025 134.325 92.531C132.894 88.0542 135.387 83.3727 139.768 81.9719C143.007 80.9364 146.473 81.9278 148.625 84.3894C149.296 83.86 150.092 83.3954 150.854 83.1518C154.474 81.9946 158.275 84.0337 159.402 87.558C159.68 88.099 159.451 88.6971 158.88 88.8798ZM178.197 79.0289C177.626 79.2116 177.123 78.9525 176.94 78.381C175.844 74.952 177.788 71.1808 181.217 70.0845C181.979 69.8409 182.897 69.7573 183.655 69.8299C184.01 66.6717 186.163 63.8836 189.307 62.8786C193.593 61.5082 198.244 63.9056 199.614 68.1919C199.797 68.7634 199.538 69.2662 198.966 69.4489C198.395 69.6316 197.892 69.3724 197.709 68.8009C196.674 65.5624 193.154 63.7481 189.916 64.7836C187.249 65.6363 185.541 68.1769 185.571 70.8971C185.567 71.2133 185.468 71.5599 185.213 71.7465C184.958 71.9331 184.672 72.0245 184.325 71.9254C183.506 71.6623 182.588 71.7459 181.731 72.02C179.349 72.7813 177.989 75.4211 178.75 77.8023C179.028 78.3434 178.674 78.8767 178.197 79.0289Z" fill="#1E1D1F"/>
<path d="M198.526 48.6974L198.023 48.4382C194.473 46.5287 188.054 46.4813 184.213 47.6042L137.064 62.6789C131.597 62.327 126.341 60.3333 122.082 56.8654C121.8 56.6405 121.484 56.6366 121.198 56.728L114.531 58.8598C114.245 58.9511 113.925 59.2634 113.921 59.5796C113.822 59.9263 113.944 60.3073 114.13 60.5626L121.093 67.8904C120.742 68.1074 120.578 68.5798 120.7 68.9608L121.187 70.4848L120.044 70.8503C118.711 71.2766 117.903 72.6898 118.36 74.1186C118.816 75.5473 120.199 76.2601 121.628 75.8033L123.628 75.1637C133.453 76.0119 143.081 74.9286 152.51 71.9136L167.274 67.1933C168.215 67.8374 169.571 68.1387 170.809 67.7428L180.049 64.7887C180.62 64.606 180.879 64.1032 180.697 63.5317L180.514 62.9602L196.135 57.9658C198.04 57.3567 199.575 55.9208 200.452 54.0657C201.298 52.1154 200.442 49.7646 198.526 48.6974ZM121.266 58.911C124.714 61.4834 128.549 63.3016 132.713 64.175L123.093 67.2509L116.599 60.4032L121.266 58.911ZM120.169 73.5399C120.078 73.2542 120.177 72.9075 120.558 72.7857L130.178 69.7099C130.464 69.6185 130.811 69.7177 130.933 70.0987C131.024 70.3844 130.925 70.7311 130.544 70.8529L123.114 73.2283L121.019 73.8983C120.607 73.9248 120.261 73.8257 120.169 73.5399ZM178.266 63.1539L169.979 65.8034C168.932 66.1384 167.705 65.5857 167.34 64.4427C167.005 63.395 167.557 62.1684 168.7 61.8029L176.987 59.1534L178.266 63.1539ZM198.597 53.189C197.98 54.5413 196.924 55.5087 195.495 55.9655L179.684 61.0209L178.587 57.5919C178.405 57.0204 177.902 56.7612 177.33 56.9439L168.091 59.8979C165.9 60.5984 164.734 62.861 165.435 65.0518C165.495 65.2423 165.526 65.3375 165.682 65.4976L151.68 69.9743C144.251 72.3497 136.616 73.4259 128.932 73.3631L131.122 72.6626C132.456 72.2363 133.264 70.8231 132.807 69.3943C132.35 67.9656 130.968 67.2528 129.539 67.7096L123.062 69.7805L122.879 69.209L184.982 49.3531C187.84 48.4395 192.648 48.3721 195.828 49.4548L191.733 50.7644C191.161 50.9471 190.902 51.4499 191.085 52.0214C191.267 52.5929 191.77 52.8521 192.342 52.6694L198.247 50.7812C198.807 51.5471 198.986 52.4348 198.597 53.189Z" fill="#1E1D1F"/>
<path d="M138.43 57.098L143.668 55.423C143.954 55.3317 144.084 55.0803 143.992 54.7945C143.901 54.5088 143.65 54.3792 143.364 54.4705L138.125 56.1455C137.839 56.2369 137.71 56.4883 137.801 56.774C137.892 57.0598 138.144 57.1894 138.43 57.098ZM147.319 51.7362L162.083 47.0158C162.368 46.9245 162.498 46.6731 162.407 46.3873C162.315 46.1016 162.064 45.972 161.778 46.0633L147.014 50.7837C146.729 50.875 146.599 51.1264 146.69 51.4122C146.782 51.6979 147.033 51.8275 147.319 51.7362Z" fill="#1E1D1F"/>
</g>
<path fill-rule="evenodd" clip-rule="evenodd" d="M514.998 226.962C514.733 226.962 514.478 227.067 514.291 227.255C514.103 227.442 513.998 227.697 513.998 227.962V231.634C513.998 231.899 514.103 232.154 514.291 232.341C514.478 232.529 514.733 232.634 514.998 232.634C515.263 232.634 515.518 232.529 515.705 232.341C515.893 232.154 515.998 231.899 515.998 231.634V228.962H517.998V231.634C517.998 231.899 518.103 232.154 518.291 232.341C518.478 232.529 518.733 232.634 518.998 232.634C519.263 232.634 519.518 232.529 519.705 232.341C519.893 232.154 519.998 231.899 519.998 231.634V227.962C519.998 227.697 519.893 227.442 519.705 227.255C519.518 227.067 519.263 226.962 518.998 226.962H514.998ZM511.4 248.962C509.516 248.962 507.998 250.546 507.998 252.438V266.154C507.998 266.419 508.103 266.674 508.291 266.861C508.478 267.049 508.733 267.154 508.998 267.154C509.263 267.154 509.518 267.049 509.705 266.861C509.893 266.674 509.998 266.419 509.998 266.154V252.436C509.998 251.582 510.624 250.96 511.4 250.96H522.6C523.374 250.96 523.998 251.582 523.998 252.436V266.152C523.998 266.417 524.103 266.672 524.291 266.859C524.478 267.047 524.733 267.152 524.998 267.152C525.263 267.152 525.518 267.047 525.705 266.859C525.893 266.672 525.998 266.417 525.998 266.152V252.436C525.998 250.544 524.484 248.96 522.598 248.96H511.4V248.962ZM513.248 236.962C511.464 236.962 509.998 238.428 509.998 240.212V243.946C509.998 244.211 510.103 244.466 510.291 244.653C510.478 244.841 510.733 244.946 510.998 244.946C511.263 244.946 511.518 244.841 511.705 244.653C511.893 244.466 511.998 244.211 511.998 243.946V240.212C511.998 239.502 512.538 238.962 513.248 238.962H520.748C521.458 238.962 521.998 239.502 521.998 240.212V243.946C521.998 244.211 522.103 244.466 522.291 244.653C522.478 244.841 522.733 244.946 522.998 244.946C523.263 244.946 523.518 244.841 523.705 244.653C523.893 244.466 523.998 244.211 523.998 243.946V240.212C523.998 238.428 522.532 236.962 520.748 236.962H513.248Z" fill="#010101"/>
<path d="M536.998 240.962C536.733 240.962 536.478 241.067 536.291 241.255C536.103 241.442 535.998 241.697 535.998 241.962V245.962C535.998 246.227 536.103 246.482 536.291 246.669C536.478 246.857 536.733 246.962 536.998 246.962C537.263 246.962 537.518 246.857 537.705 246.669C537.893 246.482 537.998 246.227 537.998 245.962V242.962H543.998V245.962C543.998 246.227 544.103 246.482 544.291 246.669C544.478 246.857 544.733 246.962 544.998 246.962C545.263 246.962 545.518 246.857 545.705 246.669C545.893 246.482 545.998 246.227 545.998 245.962V241.962C545.998 241.697 545.893 241.442 545.705 241.255C545.518 241.067 545.263 240.962 544.998 240.962H536.998ZM536.74 216.004L536.6 216.016L536.01 216.102L536.298 218.082L536.838 218.004L539.104 218L539.998 218.13L540.278 216.15L539.33 216.012L539.19 216L536.74 216.004ZM531.788 217.068L531.654 217.118L530.018 217.86L530.846 219.68L532.408 218.97L534.462 218.364L533.902 216.446L531.788 217.068ZM541.822 218.45L543.562 218.962L545.422 219.806L546.252 217.986L544.338 217.114L544.206 217.068L542.386 216.532L541.822 218.45ZM527.362 219.442L527.248 219.524L525.432 221.074L525.334 221.174L524.896 221.664L526.396 222.988L526.78 222.556L528.502 221.086L529.242 220.618L528.17 218.93L527.362 219.442ZM547.006 220.778L547.502 221.09L549.202 222.544L549.798 223.216L551.298 221.892L550.662 221.168L550.562 221.072L548.752 219.528L548.642 219.448L548.08 219.09L547.006 220.778ZM522.31 225.142L523.982 226.236L525.19 224.396L523.518 223.302L522.31 225.142ZM550.974 224.65L551.948 226.122L552.834 228.016L554.646 227.164L553.726 225.208L553.654 225.082L552.642 223.548L550.974 224.65ZM553.404 229.782L553.6 230.418L553.944 232.654L553.952 233.438L555.952 233.418L555.944 232.558L555.932 232.418L555.564 230.036L555.534 229.896L555.318 229.196L553.404 229.782ZM553.682 237.114L553.146 239.068L555.072 239.598L555.626 237.578L555.658 237.442L555.9 235.552L553.916 235.298L553.682 237.114ZM552.194 241.34L551.018 243.26L550.466 243.92L552.006 245.2L552.596 244.49L552.676 244.37L553.94 242.322L554 242.192L554.268 241.578L552.436 240.786L552.194 241.34Z" fill="#010101"/>
<path fill-rule="evenodd" clip-rule="evenodd" d="M510.526 220.962V222.962H523.47V220.962H510.526Z" fill="#010101"/>
<path fill-rule="evenodd" clip-rule="evenodd" d="M511.748 216.954C510.712 216.954 509.998 217.876 509.998 218.822V231.736C509.998 232.001 510.103 232.256 510.291 232.443C510.478 232.631 510.733 232.736 510.998 232.736C511.263 232.736 511.518 232.631 511.705 232.443C511.893 232.256 511.998 232.001 511.998 231.736V218.954H521.998V231.734C521.998 231.999 522.103 232.254 522.291 232.441C522.478 232.629 522.733 232.734 522.998 232.734C523.263 232.734 523.518 232.629 523.705 232.441C523.893 232.254 523.998 231.999 523.998 231.734V218.822C523.998 217.876 523.284 216.954 522.248 216.954H511.748Z" fill="#010101"/>
<path d="M531.034 244.962C530.769 244.962 530.514 245.067 530.327 245.255C530.139 245.442 530.034 245.697 530.034 245.962C530.034 246.227 530.139 246.482 530.327 246.669C530.514 246.857 530.769 246.962 531.034 246.962H553.998V262.962H531.034C530.769 262.962 530.514 263.067 530.327 263.255C530.139 263.442 530.034 263.697 530.034 263.962C530.034 264.227 530.139 264.482 530.327 264.669C530.514 264.857 530.769 264.962 531.034 264.962H554.998C555.263 264.962 555.518 264.857 555.705 264.669C555.893 264.482 555.998 264.227 555.998 263.962V245.962C555.998 245.697 555.893 245.442 555.705 245.255C555.518 245.067 555.263 244.962 554.998 244.962H531.034Z" fill="#010101"/>
<path d="M554.982 248.946C554.851 248.948 554.721 248.976 554.601 249.028C554.48 249.08 554.371 249.156 554.28 249.25C554.188 249.345 554.116 249.456 554.068 249.578C554.02 249.7 553.996 249.831 553.998 249.962C553.998 251.642 552.678 252.962 550.998 252.962H543.142C542.877 252.962 542.622 253.067 542.435 253.255C542.247 253.442 542.142 253.697 542.142 253.962C542.142 254.227 542.247 254.482 542.435 254.669C542.622 254.857 542.877 254.962 543.142 254.962H551C553.752 254.962 556 252.714 556 249.962C556.002 249.828 555.977 249.695 555.927 249.571C555.877 249.446 555.802 249.334 555.707 249.239C555.612 249.144 555.5 249.069 555.375 249.019C555.251 248.969 555.118 248.944 554.984 248.946H554.982ZM531 252.962C530.735 252.962 530.48 253.067 530.293 253.255C530.105 253.442 530 253.697 530 253.962C530 254.227 530.105 254.482 530.293 254.669C530.48 254.857 530.735 254.962 531 254.962H538.778C539.043 254.962 539.298 254.857 539.485 254.669C539.673 254.482 539.778 254.227 539.778 253.962C539.778 253.697 539.673 253.442 539.485 253.255C539.298 253.067 539.043 252.962 538.778 252.962H531Z" fill="#010101"/>
<path fill-rule="evenodd" clip-rule="evenodd" d="M508.252 265.496C506.752 265.496 505.502 266.728 505.502 268.232C505.502 269.734 506.75 270.966 508.252 270.966C509.752 270.966 511.002 269.734 511.002 268.232C511.002 266.728 509.754 265.496 508.252 265.496ZM508.252 267.496C508.682 267.496 509.002 267.82 509.002 268.232C509.002 268.644 508.682 268.966 508.252 268.966C508.154 268.969 508.057 268.952 507.965 268.916C507.874 268.881 507.791 268.827 507.721 268.759C507.651 268.69 507.595 268.608 507.558 268.518C507.52 268.427 507.501 268.33 507.502 268.232C507.502 267.82 507.822 267.496 508.252 267.496ZM525.744 265.496C524.244 265.496 522.994 266.728 522.994 268.232C522.994 269.734 524.242 270.966 525.744 270.966C527.244 270.966 528.494 269.734 528.494 268.232C528.494 266.728 527.246 265.496 525.744 265.496ZM525.744 267.496C526.174 267.496 526.494 267.82 526.494 268.232C526.494 268.644 526.174 268.966 525.744 268.966C525.646 268.969 525.549 268.952 525.457 268.916C525.366 268.881 525.283 268.827 525.213 268.759C525.143 268.69 525.087 268.608 525.05 268.518C525.012 268.427 524.993 268.33 524.994 268.232C524.994 267.82 525.314 267.496 525.744 267.496ZM503.002 242.962V244.962H530.994V242.962H503.002Z" fill="#010101"/>
<path fill-rule="evenodd" clip-rule="evenodd" d="M505.802 230.824C503.754 230.824 502.002 232.408 502.002 234.426V263.9C502.002 265.918 503.754 267.496 505.802 267.496H528.194C530.242 267.496 531.994 265.916 531.994 263.9V234.426C531.994 232.408 530.242 230.826 528.194 230.826H505.8L505.802 230.824ZM505.802 232.824H528.194C529.246 232.824 529.994 233.564 529.994 234.426V263.9C529.994 264.762 529.246 265.496 528.194 265.496H505.8C504.748 265.496 504 264.762 504 263.9V234.426C504 233.564 504.748 232.826 505.8 232.826L505.802 232.824Z" fill="#010101"/>
<path fill-rule="evenodd" clip-rule="evenodd" d="M508.252 252.962V254.962H525.744V252.962H508.252Z" fill="#010101"/>
<path fill-rule="evenodd" clip-rule="evenodd" d="M519.998 253.496V256.962H521.998V253.496H519.998Z" fill="#010101"/>
<path d="M538.998 250.962C538.733 250.962 538.478 251.067 538.291 251.255C538.103 251.442 537.998 251.697 537.998 251.962V255.962C537.998 256.227 538.103 256.482 538.291 256.669C538.478 256.857 538.733 256.962 538.998 256.962H542.998C543.263 256.962 543.518 256.857 543.705 256.669C543.893 256.482 543.998 256.227 543.998 255.962V251.962C543.998 251.697 543.893 251.442 543.705 251.255C543.518 251.067 543.263 250.962 542.998 250.962H538.998ZM539.998 252.962H541.998V254.962H539.998V252.962Z" fill="#010101"/>
<path d="M283.996 544.737H288.449C288.929 547.852 291.619 550.247 294.866 550.247C298.109 550.247 300.797 547.857 301.28 544.737H328.88C329.359 547.852 332.05 550.247 335.296 550.247C338.539 550.247 341.228 547.857 341.711 544.737H343.996C345.651 544.737 346.996 543.392 346.996 541.737L346.995 527.927C347.183 523.184 344.112 519.937 341.506 518.05C339.696 516.727 337.499 516.027 335.156 516.027H308.136C306.911 516.027 305.727 516.608 304.962 517.589L296.785 528.255C296.595 528.5 296.296 528.647 295.986 528.647H285.996C283.106 528.647 281 531.162 281 533.375C281 534.195 280.996 542.236 280.996 541.737C280.996 543.392 282.342 544.737 283.996 544.737ZM294.866 548.247C292.384 548.247 290.366 546.229 290.366 543.741C290.374 541.258 292.393 539.237 294.866 539.237C297.327 539.237 299.358 541.245 299.366 543.747C299.366 546.229 297.347 548.247 294.866 548.247ZM335.296 548.247C332.815 548.247 330.796 546.229 330.796 543.741C330.804 541.257 332.823 539.237 335.296 539.237C337.757 539.237 339.788 541.245 339.796 543.747C339.796 546.229 337.778 548.247 335.296 548.247ZM285.996 530.647H295.986C296.909 530.647 297.799 530.21 298.369 529.476L306.544 518.812C306.928 518.321 307.523 518.027 308.136 518.027H335.156C337.073 518.027 338.861 518.594 340.33 519.667C342.543 521.27 345.15 523.99 344.996 527.887V541.737C344.996 542.289 344.548 542.737 343.996 542.737H341.717C341.226 539.627 338.497 537.237 335.296 537.237C332.116 537.237 329.371 539.609 328.875 542.737H301.286C300.789 539.585 298.024 537.237 294.866 537.237C291.667 537.237 288.937 539.628 288.446 542.737H283.996C283.445 542.737 282.996 542.289 282.996 541.737V539.558H286.194C287.296 539.558 288.194 538.661 288.194 537.558V534.376C288.194 533.273 287.296 532.375 286.194 532.375H283.289C283.77 531.358 284.798 530.647 285.996 530.647ZM283 534.375L286.194 534.376L286.195 537.558H283V534.375Z" fill="#010101"/>
<path d="M333.803 532.318H340.993C342.096 532.318 342.993 531.421 342.993 530.318L342.992 527.768C343.087 525.374 341.79 523.19 339.139 521.278C338.025 520.472 336.609 520.028 335.153 520.028H333.803C332.7 520.028 331.803 520.925 331.803 522.028V530.318C331.803 531.421 332.7 532.318 333.803 532.318ZM333.803 522.028H335.153C336.192 522.028 337.191 522.337 337.968 522.899C340.042 524.396 341.061 526.007 340.993 527.728L340.994 530.318H333.803V522.028ZM318.738 532.318H327.738C328.84 532.318 329.738 531.421 329.738 530.318V522.028C329.738 520.925 328.84 520.028 327.738 520.028H318.738C317.634 520.028 316.737 520.925 316.737 522.028V530.318C316.737 531.421 317.634 532.318 318.738 532.318ZM318.738 522.028H327.738L327.739 530.318H318.737L318.738 522.028ZM302.758 532.318H312.672C313.775 532.318 314.672 531.421 314.672 530.318V522.028C314.672 520.925 313.775 520.028 312.672 520.028H309.116C308.498 520.028 307.905 520.32 307.528 520.811L301.172 529.101C300.704 529.709 300.625 530.515 300.964 531.203C301.304 531.891 301.991 532.318 302.758 532.318ZM309.116 522.028H312.672L312.673 530.318H302.759L309.116 522.028ZM294.866 540.926C293.318 540.926 292.056 542.187 292.051 543.744C292.051 545.296 293.314 546.559 294.866 546.559C296.418 546.559 297.681 545.296 297.681 543.738C297.676 542.187 296.413 540.926 294.866 540.926ZM294.866 544.559C294.416 544.559 294.051 544.193 294.051 543.744C294.052 543.292 294.417 542.926 294.866 542.926C295.314 542.926 295.68 543.292 295.681 543.744C295.681 544.193 295.315 544.559 294.866 544.559ZM335.296 540.926C333.749 540.926 332.487 542.187 332.481 543.744C332.481 545.296 333.743 546.559 335.296 546.559C336.848 546.559 338.111 545.296 338.111 543.738C338.106 542.187 336.843 540.926 335.296 540.926ZM335.296 544.559C334.847 544.559 334.481 544.193 334.481 543.745C334.483 543.293 334.848 542.926 335.296 542.926C335.744 542.926 336.11 543.292 336.111 543.744C336.111 544.193 335.745 544.559 335.296 544.559Z" fill="#010101"/>
<path d="M285.528 553.433H282.001V555.433H285.528V553.433Z" fill="#010101"/>
<path d="M294.168 553.433H290.64V555.433H294.168V553.433Z" fill="#010101"/>
<path d="M302.807 553.433H299.279V555.433H302.807V553.433Z" fill="#010101"/>
<path d="M311.445 553.433H307.917V555.433H311.445V553.433Z" fill="#010101"/>
<path d="M320.084 553.433H316.556V555.433H320.084V553.433Z" fill="#010101"/>
<path d="M328.723 553.433H325.195V555.433H328.723V553.433Z" fill="#010101"/>
<path d="M337.361 553.433H333.834V555.433H337.361V553.433Z" fill="#010101"/>
<path d="M346.001 553.433H342.473V555.433H346.001V553.433Z" fill="#010101"/>
<path d="M317.532 507.196H319.942C320.494 507.196 320.942 506.749 320.942 506.196C320.942 504.657 322.201 503.405 323.75 503.405C324.303 503.405 324.75 502.958 324.75 502.405C324.75 500.867 326.011 499.615 327.56 499.615C328.161 499.615 328.742 499.812 329.242 500.187C329.379 500.29 329.54 500.356 329.71 500.378C330.773 500.52 331.846 500.973 331.748 503.256C331.736 503.557 331.859 503.848 332.085 504.048C332.311 504.248 332.616 504.335 332.911 504.285C333.042 504.264 333.173 504.242 333.31 504.242C334.627 504.242 335.699 505.307 335.699 506.615C335.699 507.167 336.146 507.615 336.699 507.615H339.929C340.482 507.615 340.929 507.167 340.929 506.615C340.929 506.062 340.482 505.615 339.929 505.615H337.582C337.158 503.812 335.61 502.436 333.718 502.261C333.498 500.135 332.287 498.798 330.228 498.435C329.429 497.897 328.511 497.615 327.56 497.615C325.221 497.615 323.267 499.286 322.838 501.492C320.948 501.855 319.448 503.325 319.047 505.196H317.532C316.979 505.196 316.532 505.644 316.532 506.196C316.532 506.749 316.979 507.196 317.532 507.196ZM308.124 507.115C307.7 505.312 306.152 503.936 304.26 503.761C304.04 501.636 302.829 500.298 300.77 499.935C299.971 499.397 299.053 499.115 298.102 499.115C295.763 499.115 293.809 500.786 293.38 502.992C291.489 503.355 289.989 504.825 289.588 506.696H288.074C287.521 506.696 287.074 507.144 287.074 507.696C287.074 508.249 287.521 508.696 288.074 508.696H290.483C291.035 508.696 291.483 508.249 291.483 507.696C291.483 506.157 292.743 504.905 294.292 504.905C294.845 504.905 295.292 504.458 295.292 503.905C295.292 502.367 296.553 501.115 298.102 501.115C298.703 501.115 299.284 501.312 299.784 501.687C299.921 501.79 300.082 501.856 300.252 501.878C301.315 502.02 302.388 502.473 302.29 504.756C302.278 505.058 302.402 505.349 302.627 505.548C302.854 505.748 303.159 505.835 303.454 505.785C303.584 505.763 303.716 505.742 303.852 505.742C305.169 505.742 306.241 506.807 306.241 508.115C306.241 508.667 306.688 509.115 307.241 509.115H310.47C311.023 509.115 311.47 508.667 311.47 508.115C311.47 507.563 311.023 507.115 310.47 507.115L308.124 507.115ZM312.612 496.567C312.612 494.361 314.406 492.567 316.612 492.567C317.164 492.567 317.612 492.119 317.612 491.567C317.612 491.015 317.164 490.567 316.612 490.567C314.526 490.567 312.687 491.638 311.612 493.257C310.536 491.638 308.697 490.567 306.612 490.567C306.059 490.567 305.612 491.015 305.612 491.567C305.612 492.119 306.059 492.567 306.612 492.567C308.818 492.567 310.612 494.361 310.612 496.567C310.612 497.119 311.059 497.567 311.612 497.567C312.164 497.567 312.612 497.119 312.612 496.567ZM313.492 534.055H310.342C309.928 534.055 309.592 534.391 309.592 534.805C309.592 535.219 309.928 535.555 310.342 535.555H313.492C313.906 535.555 314.242 535.219 314.242 534.805C314.242 534.391 313.906 534.055 313.492 534.055ZM306.64 534.055H303.492C303.077 534.055 302.742 534.391 302.742 534.805C302.742 535.219 303.077 535.555 303.492 535.555H306.64C307.054 535.555 307.39 535.219 307.39 534.805C307.39 534.391 307.054 534.055 306.64 534.055Z" fill="#010101"/>
<defs>
<linearGradient id="paint0_linear_79_120" x1="320.746" y1="433.946" x2="320.746" y2="104.579" gradientUnits="userSpaceOnUse">
<stop stop-color="#4F028B"/>
<stop offset="1" stop-color="#6A94FF"/>
<stop offset="1" stop-color="#003BD1"/>
</linearGradient>
<clipPath id="clip0_79_120">
<rect width="410" height="410" fill="white" transform="translate(75 79)"/>
</clipPath>
<clipPath id="clip1_79_120">
<rect width="100" height="100" fill="white" transform="translate(96 30.4539) rotate(-17.7304)"/>
</clipPath>
</defs>
</svg>
