<svg width="136" height="29" viewBox="0 0 136 29" fill="none" xmlns="http://www.w3.org/2000/svg">
<path d="M134.752 0.772278C133.375 -0.738047 129.773 0.232875 128.396 1.41956C127.02 2.60624 117.699 8.97118 117.699 8.97118C117.699 8.97118 111.238 8.86331 108.166 8.86331C104.988 8.86331 105.094 11.0209 106.789 11.4524C108.484 11.884 110.496 13.1785 110.496 13.1785L103.717 17.9253C103.717 17.9253 100.01 17.0622 96.4091 16.307C92.8078 15.5519 92.1723 17.6016 93.9729 18.7883C95.7735 19.975 103.506 24.6138 103.506 24.6138L113.78 19.2198C113.78 19.2198 113.992 22.1326 113.992 23.6429C113.992 25.1532 115.58 27.4187 116.957 24.7217C118.334 22.0247 121.3 14.6888 121.3 14.6888C121.3 14.6888 130.939 7.2451 132.739 5.73477C134.434 4.11657 136.023 2.39048 134.752 0.772278ZM131.256 4.00869C129.562 5.51901 120.029 12.9628 119.923 12.9628L119.499 13.2864L119.287 13.8258C119.287 13.9337 117.487 18.3568 116.004 21.4853C115.898 20.1907 115.792 19.0041 115.792 18.8962L115.474 15.8755L103.506 22.1326C102.235 21.3774 99.9044 19.975 97.9978 18.7883C100.858 19.3277 103.188 19.975 103.294 19.975L104.247 20.1907L114.415 13.0706L111.661 11.3446C111.555 11.3446 111.45 11.2367 111.132 11.0209C114.203 11.0209 117.699 11.1288 117.699 11.1288H118.334L118.864 10.6973C119.817 10.05 128.291 4.22445 129.668 3.03776C129.985 2.71412 131.044 2.2826 132.104 2.17472H132.951C132.845 2.49836 132.421 3.03777 131.256 4.00869Z" fill="#4F028B"/>
<path d="M17.512 6.72L10.504 24H7.972L0.964 6.72H3.208C3.456 6.72 3.656 6.784 3.808 6.912C3.96 7.032 4.076 7.184 4.156 7.368L8.608 18.636C8.848 19.268 9.068 19.996 9.268 20.82C9.356 20.412 9.448 20.024 9.544 19.656C9.648 19.288 9.76 18.948 9.88 18.636L14.32 7.368C14.384 7.208 14.496 7.06 14.656 6.924C14.816 6.788 15.016 6.72 15.256 6.72H17.512ZM21.7366 11.76V24H19.1566V11.76H21.7366ZM22.1686 8.064C22.1686 8.296 22.1206 8.516 22.0246 8.724C21.9366 8.932 21.8126 9.116 21.6526 9.276C21.4926 9.428 21.3046 9.552 21.0886 9.648C20.8806 9.736 20.6566 9.78 20.4166 9.78C20.1846 9.78 19.9646 9.736 19.7566 9.648C19.5566 9.552 19.3806 9.428 19.2286 9.276C19.0766 9.116 18.9526 8.932 18.8566 8.724C18.7686 8.516 18.7246 8.296 18.7246 8.064C18.7246 7.824 18.7686 7.6 18.8566 7.392C18.9526 7.184 19.0766 7.004 19.2286 6.852C19.3806 6.692 19.5566 6.568 19.7566 6.48C19.9646 6.384 20.1846 6.336 20.4166 6.336C20.6566 6.336 20.8806 6.384 21.0886 6.48C21.3046 6.568 21.4926 6.692 21.6526 6.852C21.8126 7.004 21.9366 7.184 22.0246 7.392C22.1206 7.6 22.1686 7.824 22.1686 8.064ZM32.2863 13.98C32.2223 14.092 32.1503 14.172 32.0703 14.22C31.9903 14.268 31.8903 14.292 31.7703 14.292C31.6343 14.292 31.4863 14.252 31.3263 14.172C31.1663 14.084 30.9783 13.988 30.7623 13.884C30.5463 13.78 30.2903 13.688 29.9943 13.608C29.7063 13.52 29.3663 13.476 28.9743 13.476C28.6543 13.476 28.3623 13.516 28.0983 13.596C27.8423 13.668 27.6223 13.776 27.4383 13.92C27.2623 14.056 27.1263 14.22 27.0303 14.412C26.9343 14.596 26.8863 14.796 26.8863 15.012C26.8863 15.3 26.9743 15.54 27.1503 15.732C27.3263 15.924 27.5583 16.092 27.8463 16.236C28.1343 16.372 28.4623 16.496 28.8303 16.608C29.1983 16.72 29.5743 16.84 29.9583 16.968C30.3423 17.096 30.7183 17.244 31.0863 17.412C31.4543 17.58 31.7823 17.788 32.0703 18.036C32.3583 18.276 32.5903 18.572 32.7663 18.924C32.9423 19.268 33.0303 19.688 33.0303 20.184C33.0303 20.76 32.9263 21.292 32.7183 21.78C32.5103 22.268 32.2063 22.692 31.8063 23.052C31.4063 23.412 30.9063 23.692 30.3063 23.892C29.7143 24.092 29.0343 24.192 28.2663 24.192C27.8423 24.192 27.4303 24.152 27.0303 24.072C26.6383 24 26.2623 23.9 25.9023 23.772C25.5503 23.636 25.2183 23.476 24.9062 23.292C24.6023 23.108 24.3303 22.908 24.0903 22.692L24.6903 21.708C24.7623 21.588 24.8503 21.496 24.9543 21.432C25.0663 21.36 25.2023 21.324 25.3623 21.324C25.5303 21.324 25.6943 21.38 25.8543 21.492C26.0223 21.596 26.2143 21.712 26.4303 21.84C26.6543 21.968 26.9223 22.088 27.2343 22.2C27.5463 22.304 27.9343 22.356 28.3983 22.356C28.7823 22.356 29.1143 22.312 29.3943 22.224C29.6743 22.128 29.9063 22 30.0903 21.84C30.2743 21.68 30.4103 21.5 30.4983 21.3C30.5863 21.092 30.6303 20.872 30.6303 20.64C30.6303 20.328 30.5423 20.072 30.3663 19.872C30.1903 19.672 29.9543 19.5 29.6583 19.356C29.3703 19.212 29.0383 19.084 28.6623 18.972C28.2943 18.86 27.9183 18.74 27.5343 18.612C27.1503 18.484 26.7703 18.336 26.3943 18.168C26.0263 18 25.6943 17.788 25.3983 17.532C25.1103 17.268 24.8783 16.952 24.7023 16.584C24.5263 16.208 24.4383 15.752 24.4383 15.216C24.4383 14.728 24.5343 14.264 24.7263 13.824C24.9263 13.384 25.2143 12.996 25.5903 12.66C25.9743 12.324 26.4423 12.06 26.9943 11.868C27.5543 11.668 28.1983 11.568 28.9263 11.568C29.7503 11.568 30.4983 11.7 31.1703 11.964C31.8423 12.228 32.4063 12.588 32.8623 13.044L32.2863 13.98ZM41.9948 18.648C41.0748 18.68 40.2988 18.756 39.6668 18.876C39.0348 18.988 38.5228 19.136 38.1308 19.32C37.7388 19.496 37.4548 19.708 37.2788 19.956C37.1108 20.204 37.0268 20.476 37.0268 20.772C37.0268 21.06 37.0708 21.308 37.1588 21.516C37.2548 21.716 37.3828 21.884 37.5428 22.02C37.7108 22.148 37.9028 22.244 38.1188 22.308C38.3428 22.364 38.5868 22.392 38.8508 22.392C39.5228 22.392 40.0988 22.268 40.5788 22.02C41.0668 21.764 41.5388 21.396 41.9948 20.916V18.648ZM35.1548 13.464C36.5388 12.176 38.1868 11.532 40.0988 11.532C40.8028 11.532 41.4268 11.648 41.9708 11.88C42.5228 12.104 42.9828 12.424 43.3508 12.84C43.7268 13.256 44.0108 13.752 44.2028 14.328C44.4028 14.896 44.5028 15.528 44.5028 16.224V24H43.3508C43.1028 24 42.9148 23.964 42.7868 23.892C42.6588 23.812 42.5508 23.656 42.4628 23.424L42.2108 22.428C41.8988 22.708 41.5908 22.96 41.2868 23.184C40.9828 23.4 40.6668 23.584 40.3388 23.736C40.0188 23.888 39.6708 24 39.2948 24.072C38.9268 24.152 38.5188 24.192 38.0708 24.192C37.5748 24.192 37.1108 24.124 36.6788 23.988C36.2548 23.852 35.8868 23.648 35.5748 23.376C35.2628 23.096 35.0148 22.752 34.8308 22.344C34.6548 21.936 34.5668 21.456 34.5668 20.904C34.5668 20.432 34.6908 19.972 34.9388 19.524C35.1948 19.076 35.6108 18.676 36.1868 18.324C36.7708 17.964 37.5348 17.668 38.4788 17.436C39.4308 17.204 40.6028 17.072 41.9948 17.04V16.224C41.9948 15.344 41.8068 14.688 41.4308 14.256C41.0548 13.824 40.5028 13.608 39.7748 13.608C39.2788 13.608 38.8628 13.672 38.5268 13.8C38.1908 13.92 37.8988 14.052 37.6508 14.196C37.4028 14.34 37.1828 14.476 36.9908 14.604C36.7988 14.724 36.5948 14.784 36.3788 14.784C36.2028 14.784 36.0508 14.74 35.9228 14.652C35.8028 14.556 35.7028 14.44 35.6228 14.304L35.1548 13.464ZM54.0353 21.78C54.6673 21.78 55.1993 21.708 55.6313 21.564C56.0713 21.412 56.4273 21.208 56.6993 20.952C56.9793 20.696 57.1793 20.396 57.2993 20.052C57.4273 19.7 57.4913 19.324 57.4913 18.924C57.4913 18.108 57.2113 17.468 56.6513 17.004C56.0993 16.532 55.2233 16.296 54.0233 16.296H50.5553V21.78H54.0353ZM50.5553 8.916V14.316H53.3633C54.5633 14.316 55.4593 14.084 56.0513 13.62C56.6433 13.156 56.9393 12.488 56.9393 11.616C56.9393 10.664 56.6593 9.976 56.0993 9.552C55.5473 9.128 54.6793 8.916 53.4953 8.916H50.5553ZM53.4953 6.72C54.5993 6.72 55.5433 6.828 56.3273 7.044C57.1113 7.252 57.7553 7.552 58.2593 7.944C58.7633 8.336 59.1313 8.816 59.3633 9.384C59.6033 9.944 59.7233 10.576 59.7233 11.28C59.7233 11.688 59.6593 12.084 59.5313 12.468C59.4113 12.844 59.2193 13.2 58.9553 13.536C58.6993 13.864 58.3753 14.16 57.9833 14.424C57.5913 14.688 57.1273 14.908 56.5913 15.084C59.0393 15.604 60.2633 16.904 60.2633 18.984C60.2633 19.72 60.1233 20.396 59.8433 21.012C59.5713 21.62 59.1713 22.148 58.6433 22.596C58.1233 23.036 57.4793 23.38 56.7113 23.628C55.9433 23.876 55.0673 24 54.0833 24H47.7473V6.72H53.4953ZM73.0326 11.76V24H71.4726C71.1286 24 70.9086 23.836 70.8126 23.508L70.6206 22.368C70.3646 22.64 70.0926 22.888 69.8046 23.112C69.5246 23.336 69.2246 23.528 68.9046 23.688C68.5846 23.848 68.2406 23.972 67.8726 24.06C67.5126 24.148 67.1246 24.192 66.7086 24.192C66.0366 24.192 65.4446 24.08 64.9326 23.856C64.4206 23.632 63.9886 23.316 63.6366 22.908C63.2926 22.5 63.0326 22.012 62.8566 21.444C62.6806 20.868 62.5926 20.236 62.5926 19.548V11.76H65.1726V19.548C65.1726 20.372 65.3606 21.012 65.7366 21.468C66.1206 21.924 66.7006 22.152 67.4766 22.152C68.0446 22.152 68.5726 22.024 69.0606 21.768C69.5566 21.504 70.0206 21.144 70.4526 20.688V11.76H73.0326ZM83.9778 14.772C83.6178 14.308 83.2218 13.984 82.7898 13.8C82.3578 13.616 81.8898 13.524 81.3858 13.524C80.3778 13.524 79.5898 13.896 79.0218 14.64C78.4538 15.376 78.1698 16.468 78.1698 17.916C78.1698 18.668 78.2338 19.312 78.3618 19.848C78.4898 20.376 78.6738 20.808 78.9138 21.144C79.1538 21.48 79.4458 21.724 79.7898 21.876C80.1338 22.028 80.5218 22.104 80.9538 22.104C81.6098 22.104 82.1738 21.964 82.6458 21.684C83.1258 21.396 83.5698 20.992 83.9778 20.472V14.772ZM86.5578 6.24V24H84.9978C84.6538 24 84.4338 23.836 84.3378 23.508L84.1098 22.176C83.5978 22.776 83.0138 23.26 82.3578 23.628C81.7098 23.996 80.9538 24.18 80.0898 24.18C79.4018 24.18 78.7778 24.044 78.2178 23.772C77.6578 23.492 77.1778 23.088 76.7778 22.56C76.3778 22.032 76.0658 21.38 75.8418 20.604C75.6258 19.82 75.5178 18.924 75.5178 17.916C75.5178 17.004 75.6378 16.16 75.8778 15.384C76.1258 14.608 76.4778 13.936 76.9338 13.368C77.3898 12.792 77.9418 12.344 78.5898 12.024C79.2458 11.696 79.9778 11.532 80.7858 11.532C81.5058 11.532 82.1178 11.648 82.6218 11.88C83.1258 12.104 83.5778 12.42 83.9778 12.828V6.24H86.5578Z" fill="#4F028B"/>
</svg>
