<svg width="40" height="40" viewBox="0 0 40 40" fill="none" xmlns="http://www.w3.org/2000/svg">
<g clip-path="url(#clip0_201_269)">
<path d="M26.5151 20.2053L40.0001 28.7303V11.3203L26.5151 20.2053Z" fill="#4F028B"/>
<path d="M0 11.3203V28.7303L13.485 20.2053L0 11.3203Z" fill="#4F028B"/>
<path d="M37.5002 6.25H2.5002C1.2527 6.25 0.262695 7.18 0.0751953 8.3775L20.0002 21.505L39.9252 8.3775C39.7377 7.18 38.7477 6.25 37.5002 6.25Z" fill="#4F028B"/>
<path d="M24.2251 21.7154L20.6876 24.0454C20.4776 24.1829 20.2401 24.2504 20.0001 24.2504C19.7601 24.2504 19.5226 24.1829 19.3126 24.0454L15.7751 21.7129L0.0800781 31.6404C0.272578 32.8279 1.25758 33.7504 2.50008 33.7504H37.5001C38.7426 33.7504 39.7276 32.8279 39.9201 31.6404L24.2251 21.7154Z" fill="#4F028B"/>
</g>
<defs>
<clipPath id="clip0_201_269">
<rect width="40" height="40" fill="white"/>
</clipPath>
</defs>
</svg>
