<svg width="40" height="40" viewBox="0 0 40 40" fill="none" xmlns="http://www.w3.org/2000/svg">
<g clip-path="url(#clip0_201_291)">
<path d="M20 40C31.0457 40 40 31.0457 40 20C40 8.95431 31.0457 0 20 0C8.95431 0 0 8.95431 0 20C0 31.0457 8.95431 40 20 40Z" fill="#4F028B"/>
<path d="M31.9499 21.6085V29.8541H27.1694V22.1611C27.1694 20.2295 26.4792 18.9104 24.7483 18.9104C23.4274 18.9104 22.6427 19.7984 22.2961 20.6584C22.1703 20.9657 22.1378 21.3924 22.1378 21.8235V29.8537H17.3569C17.3569 29.8537 17.4211 16.8244 17.3569 15.4757H22.1382V17.5132C22.1286 17.5292 22.115 17.5449 22.1065 17.5602H22.1382V17.5132C22.7735 16.5356 23.9065 15.138 26.4467 15.138C29.5919 15.138 31.9499 17.193 31.9499 21.6085ZM12.3557 8.54492C10.7203 8.54492 9.65039 9.6184 9.65039 11.0288C9.65039 12.4092 10.6893 13.5137 12.2929 13.5137H12.3239C13.9914 13.5137 15.0281 12.4092 15.0281 11.0288C14.9964 9.6184 13.9914 8.54492 12.3557 8.54492ZM9.93454 29.8541H14.7137V15.4757H9.93454V29.8541Z" fill="#D9D9D9"/>
</g>
<defs>
<clipPath id="clip0_201_291">
<rect width="40" height="40" fill="white"/>
</clipPath>
</defs>
</svg>
