<svg width="40" height="40" viewBox="0 0 40 40" fill="none" xmlns="http://www.w3.org/2000/svg">
<g clip-path="url(#clip0_201_286)">
<path d="M20.0003 39.9996C31.0459 39.9996 40.0001 31.0454 40.0001 19.9998C40.0001 8.95423 31.0459 0 20.0003 0C8.95471 0 0.000488281 8.95423 0.000488281 19.9998C0.000488281 31.0454 8.95471 39.9996 20.0003 39.9996Z" fill="#4F028B"/>
<path d="M32.2509 14.3726C31.3938 14.7527 30.4719 15.0097 29.505 15.1245C30.4922 14.5331 31.2498 13.5972 31.6074 12.4802C30.6836 13.0282 29.6601 13.4257 28.5716 13.64C27.6996 12.7113 26.4571 12.1309 25.0813 12.1309C22.4417 12.1309 20.3008 14.2717 20.3008 16.9114C20.3008 17.2861 20.3432 17.6508 20.4252 18.0009C16.4522 17.8016 12.9295 15.8985 10.5715 13.0054C10.1601 13.7113 9.92406 14.5331 9.92406 15.409C9.92406 17.0672 10.7686 18.531 12.0507 19.3881C11.2674 19.3635 10.5298 19.1485 9.88556 18.7895C9.8852 18.8098 9.8852 18.8301 9.8852 18.8501C9.8852 21.1664 11.5337 23.0984 13.7202 23.5372C13.3195 23.647 12.8963 23.7051 12.461 23.7051C12.1523 23.7051 11.8532 23.6756 11.5615 23.6199C12.1698 25.5187 13.9349 26.9009 16.0273 26.9398C14.3909 28.2222 12.3298 28.9862 10.0895 28.9862C9.70445 28.9862 9.32298 28.9637 8.94971 28.9192C11.0642 30.2761 13.5776 31.0672 16.2772 31.0672C25.0703 31.0672 29.879 23.7829 29.879 17.465C29.879 17.2579 29.8743 17.0515 29.8651 16.8468C30.7998 16.173 31.6102 15.3313 32.2509 14.3726Z" fill="#D9D9D9"/>
</g>
<defs>
<clipPath id="clip0_201_286">
<rect width="40" height="40" fill="white"/>
</clipPath>
</defs>
</svg>
